<svg xmlns="http://www.w3.org/2000/svg" viewBox="0 0 40 40">
  <circle cx="20" cy="20" r="19" fill="#166534"/>
  <g transform="translate(9.5, 4) scale(0.075)">
    <g transform="translate(1308.8811,510.00393)">
      <path fill="#f59e0b" d="m -1228.4294,-100.18579 c -1.6814,-1.2295 -1.6897,-1.4118 -0.1689,-3.7328 2.0098,-3.0673 15.6856,-12.3134 25.5145,-17.2501 4.1085,-2.0635 10.9633,-4.8538 15.2329,-6.2007 10.5203,-3.3185 59.7714,-11.3533 90.2058,-14.716 13.6641,-1.5098 27.1641,-3.2156 30,-3.7909 20.3855,-4.1353 27.4482,-13.2299 21.0294,-27.0794 -4.3443,-9.3736 -12.1296,-15.4498 -22.657,-17.6832 -2.6999,-0.5727 -10.5384,-1.0116 -17.419,-0.9751 -24.3595,0.1291 -30.1789,-3.832 -37.3223,-25.4042 -1.622,-4.8984 -3.0693,-9.0487 -3.2161,-9.2228 -0.1467,-0.174 -3.7806,1.399 -8.0752,3.4957 -4.2947,2.0967 -10.9726,4.6099 -14.8398,5.5848 l -7.0313,1.7727 -0.2449,4.5754 c -0.5454,10.1857 -2.4456,11.5208 -13.7045,9.629 -3.9043,-0.656 -7.4036,-0.8881 -7.7761,-0.5155 -0.3725,0.3725 -0.1648,2.4569 0.4615,4.6321 4.0831,14.1793 4.8869,18.2321 4.3076,21.7189 -0.9211,5.5446 -4.3905,8.4355 -12.2762,10.2291 -13.5584,3.0838 -100.7742,4.9275 -114.3799,2.418 -3.1899,-0.5884 -6.471,-1.8113 -7.2912,-2.7176 -1.3835,-1.5288 -1.2098,-1.9021 2.404,-5.1669 5.1388,-4.6427 10.4544,-6.891 19.3301,-8.1762 6.4628,-0.9357 9.3259,-0.7702 25.1072,1.4511 25.2299,3.5514 56.5631,3.1573 64.2306,-0.8077 4.943,-2.5561 4.9959,-3.9962 0.4866,-13.2208 -5.9798,-12.2326 -5.743,-12.0935 -20.5173,-12.0455 -6.7787,0.023 -23.0828,0.395 -36.2312,0.8288 -16.998,0.5609 -26.8358,0.4683 -34.0443,-0.3204 -15.6976,-1.7174 -17.5122,-3.0463 -11.4403,-8.3775 9.1835,-8.0633 36.9043,-10.3725 68.9393,-5.743 8.2205,1.188 17.7953,1.1568 17.7953,-0.058 0,-0.5354 -4.0565,-5.0299 -9.0143,-9.9878 -4.9578,-4.9579 -9.6038,-10.4252 -10.3243,-12.1495 -0.7205,-1.7245 -1.5775,-6.3002 -1.9045,-10.1684 -0.5784,-6.8424 -0.6622,-7.0332 -3.0903,-7.0332 -3.9115,0 -5.3898,-1.884 -6.4638,-8.2378 -0.548,-3.2418 -1.8537,-6.9841 -2.9015,-8.3162 -2.0308,-2.5817 -1.9749,-3.6858 0.6018,-11.8829 1.4057,-4.4721 1.393,-4.5632 -0.9843,-7.0445 -2.5545,-2.6664 -6.2719,-11.4641 -4.1204,-9.7515 0.6437,0.5124 3.2177,1.8245 5.7199,2.916 4.0852,1.7818 4.4789,1.8179 3.8578,0.3538 -1.6333,-3.8498 -3.0603,-8.2165 -2.7787,-8.5034 0.583,-0.5941 4.7034,1.96 7.6353,4.7329 l 2.9514,2.7914 0.9934,-4.5445 c 0.9562,-4.3745 0.8718,-4.7228 -2.2552,-9.3105 -3.7155,-5.4514 -11.8153,-12.357 -18.7946,-16.0239 l -4.7785,-2.5107 -3.1902,2.235 c -4.9388,3.4597 -14.9492,13.2797 -16.4095,16.0971 -0.7216,1.3924 -1.312,4.6296 -1.312,7.1937 0,5.7504 2.7503,9.4487 8.9108,11.9821 2.3139,0.9516 4.2088,2.1637 4.2107,2.6935 0.01,2.8093 -7.2085,10.7528 -9.7813,10.7634 -2.6704,0.011 -16.7027,-14.8773 -19.7101,-20.9124 -2.8867,-5.7927 -2.9829,-9.2891 -0.4429,-16.0781 2.5865,-6.9129 8.0181,-14.8787 15.9004,-23.3191 l 6.4884,-6.9476 -1.7679,-3.6591 c -2.1832,-4.5188 -4.4168,-15.2468 -5.2437,-25.1854 -0.8664,-10.4144 0.712,-18.038 5.6294,-27.1875 2.2169,-4.125 5.806,-11.5993 7.9757,-16.6096 4.3893,-10.1357 4.3507,-13.1217 -0.2031,-15.6894 -2.056,-1.1593 -3.3212,-1.1812 -8.5219,-0.1474 -8.8725,1.7635 -13.1779,-0.076 -14.3106,-6.1137 -0.9478,-5.052 0.2013,-7.4216 6.7671,-13.9552 5.8916,-5.8627 6.1144,-6.2444 4.614,-7.9024 -1.0451,-1.1547 -1.4767,-2.9458 -1.2802,-5.3118 0.2443,-2.9416 0.9334,-4.0007 3.9172,-6.0211 5.718,-3.8719 5.8305,-4.8015 1.1471,-9.4849 -3.5803,-3.5802 -4.1959,-4.7997 -4.779,-9.467 -0.6746,-5.3993 -0.3192,-8.3637 1.5781,-13.161 1.5898,-4.02 3.8083,-2.2185 6.3935,5.1916 0.7466,2.1401 1.4486,2.5781 4.1319,2.5781 4.2286,0 8.2896,3.4401 9.9306,8.4122 l 1.2685,3.8436 7.8746,-0.2685 7.8746,-0.2685 1.6991,-5.0262 c 0.9345,-2.7644 2.6972,-6.0187 3.9171,-7.2316 2.2794,-2.2663 11.9884,-5.388 13.2198,-4.2505 1.2152,1.1225 2.5921,10.4578 2.5921,17.5737 0,7.1093 -0.8261,8.9238 -5.1695,11.3545 -1.4809,0.8288 -1.5269,1.5066 -0.4994,7.3715 0.8901,5.0805 0.8814,9.0809 -0.041,18.7483 -1.138,11.9261 -1.1087,12.4884 0.9887,19.0112 3.5866,11.1542 11.5264,22.0193 28.5712,39.0973 8.2809,8.2971 21.1735,20.1542 28.6501,26.3492 25.2354,20.9095 41.4548,39.8612 52.3948,61.2213 9.6392,18.8205 13.1575,31.6468 15.5602,56.7278 1.5674,16.3619 3.0461,21.0059 8.0213,25.1923 4.0966,3.4471 4.7432,3.678 38.7505,13.8387 12.2239,3.6522 17.6406,6.5109 24.2086,12.7757 7.6522,7.2989 10.5822,13.6159 10.5335,22.7101 -0.031,5.7392 -0.523,8.0448 -2.6702,12.5041 -7.5405,15.6605 -24.2729,28.2819 -44.1429,33.2975 -12.634,3.189 -21.1722,3.8913 -47.3118,3.8913 -45.0734,0 -63.0944,3.1546 -88.4467,15.4826 -16.5635,8.054199 -25.4607,10.366399 -29.2441,7.5998 z"/>
    </g>
  </g>
  <!-- Boxing gloves — gold to match kangaroo -->
  <circle cx="11.5" cy="13" r="2.3" fill="#f59e0b"/>
  <circle cx="13" cy="17" r="2" fill="#f59e0b"/>
</svg>
