<svg xmlns="http://www.w3.org/2000/svg" viewBox="0 0 40 40">
  <circle cx="20" cy="20" r="19" fill="#166534"/>
  <g fill="#f59e0b" stroke="#14532d" stroke-width="0.4" stroke-linejoin="round" stroke-linecap="round">
    <!-- Tail -->
    <path d="M13 24 C11 26, 8 28, 8 31 C8.5 32.5, 10 32, 11.5 30 C12.5 28, 13 26, 13 24" fill="#f59e0b"/>
    <!-- Back foot -->
    <path d="M13 30 C11 31.5, 8.5 32.5, 8 32 C7.5 31.5, 8.5 30.8, 10 30 L13 28.5 Z" fill="#f59e0b"/>
    <!-- Front foot -->
    <path d="M21.5 30.5 C23 31.5, 25.5 32.5, 26 32 C26.5 31.5, 25.5 30.8, 24 30 L21.5 29 Z" fill="#f59e0b"/>
    <!-- Back leg -->
    <path d="M14 21 C12.5 23, 12 26, 12.5 29 C13 30.5, 14.5 30.5, 15.5 29 C16.5 27, 16 24, 15 21 Z" fill="#f59e0b"/>
    <!-- Front leg -->
    <path d="M20.5 26.5 C20.5 28, 21 29.5, 21.5 30.5 C22.5 30.5, 23 29.5, 22.5 28.5 C22 27.5, 21.5 26.5, 21 26 Z" fill="#f59e0b"/>
    <!-- Body -->
    <path d="M15 14 C13 17, 12 20, 12.5 24 C13 27, 17 28.5, 21 27.5 C23.5 27, 24.5 24, 24.5 21 C24.5 17, 22.5 14, 19.5 13 Z" fill="#f59e0b"/>
    <!-- Neck -->
    <path d="M19.5 13 C20.5 11.5, 22 10.5, 23 11" stroke="#f59e0b" stroke-width="3" fill="none"/>
    <!-- Head -->
    <ellipse cx="23.5" cy="10" rx="3.5" ry="3" fill="#f59e0b"/>
    <!-- Snout -->
    <path d="M26 10 C27.5 9.5, 29 10, 29 10.7 C29 11.3, 27.5 11.3, 26.5 11 Z" fill="#f59e0b"/>
    <!-- Eye -->
    <ellipse cx="25" cy="9.5" rx="0.5" ry="0.4" fill="#14532d" stroke="none"/>
    <!-- Nose -->
    <circle cx="28.5" cy="10.2" r="0.35" fill="#14532d" stroke="none"/>
    <!-- Smirk -->
    <path d="M27 11.2 C27.5 11.5, 28.2 11.3, 28.5 11" stroke="#14532d" stroke-width="0.3" fill="none"/>
    <!-- Left ear -->
    <path d="M21.5 7.5 C21 5.5, 21.5 4, 22.3 4 C22.8 4, 22.8 5.5, 22.3 7" fill="#f59e0b"/>
    <!-- Right ear -->
    <path d="M23.5 7 C23.5 5, 24 4, 24.8 4.2 C25.2 4.4, 25 5.5, 24.5 7" fill="#f59e0b"/>
    <!-- Upper arm -->
    <path d="M17 16 C15.5 14.5, 14.5 13, 13.5 11.5" stroke="#f59e0b" stroke-width="2" fill="none"/>
    <!-- Lower arm -->
    <path d="M18 18 C17 16.5, 15.5 15.5, 14.5 14.5" stroke="#f59e0b" stroke-width="1.8" fill="none"/>
  </g>
  <!-- Boxing gloves -->
  <circle cx="12.5" cy="10.5" r="2.6" fill="#dc2626" stroke="#991b1b" stroke-width="0.4"/>
  <circle cx="13.5" cy="14" r="2.2" fill="#dc2626" stroke="#991b1b" stroke-width="0.4"/>
</svg>
