<svg xmlns="http://www.w3.org/2000/svg" viewBox="0 0 40 40">
  <circle cx="20" cy="20" r="19" fill="#166534"/>

  <g fill="#f59e0b" stroke="#14532d" stroke-width="0.5">
    <!-- Tail -->
    <path d="M14 27 C11 25, 9 22, 10 19" stroke="#f59e0b" stroke-width="2.2" fill="none" stroke-linecap="round"/>

    <!-- Body -->
    <ellipse cx="18.5" cy="23" rx="5" ry="6.5"/>

    <!-- Neck -->
    <rect x="17" y="15" width="4.5" height="4" rx="2"/>

    <!-- Head -->
    <ellipse cx="20.5" cy="12.5" rx="3.5" ry="3.5"/>

    <!-- Snout -->
    <ellipse cx="24" cy="13.5" rx="2.2" ry="1.2"/>

    <!-- Ears -->
    <ellipse cx="19.5" cy="8" rx="1" ry="2.5" transform="rotate(-8,19.5,8)"/>
    <ellipse cx="21.5" cy="8.2" rx="0.9" ry="2.3" transform="rotate(8,21.5,8.2)"/>

    <!-- Eye -->
    <circle cx="21.5" cy="12" r="0.7" fill="#166534" stroke="none"/>

    <!-- Nose -->
    <circle cx="25.5" cy="13" r="0.4" fill="#166534" stroke="none"/>

    <!-- Mouth -->
    <path d="M23.5 14.2 C24 14.5, 24.8 14.3, 25.2 14" stroke="#166534" stroke-width="0.3" fill="none"/>

    <!-- Upper arm -->
    <path d="M16 18 L12 13.5" stroke="#f59e0b" stroke-width="2.5" fill="none" stroke-linecap="round"/>

    <!-- Lower arm -->
    <path d="M15 20 L12 17.5" stroke="#f59e0b" stroke-width="2.2" fill="none" stroke-linecap="round"/>

    <!-- Back leg -->
    <path d="M15 28.5 C14 30.5, 13 32, 12 33" stroke="#f59e0b" stroke-width="2.8" fill="none" stroke-linecap="round"/>
    <path d="M12 33 L9 33.5" stroke="#f59e0b" stroke-width="2" fill="none" stroke-linecap="round"/>

    <!-- Front leg -->
    <path d="M21 28.5 C21.5 30.5, 22 32, 23 33" stroke="#f59e0b" stroke-width="2.5" fill="none" stroke-linecap="round"/>
    <path d="M23 33 L26 33.5" stroke="#f59e0b" stroke-width="2" fill="none" stroke-linecap="round"/>
  </g>

  <!-- Boxing gloves -->
  <circle cx="11" cy="12.5" r="2.5" fill="#dc2626" stroke="#7f1d1d" stroke-width="0.4"/>
  <circle cx="11" cy="17" r="2.2" fill="#dc2626" stroke="#7f1d1d" stroke-width="0.4"/>
</svg>
