<svg viewBox="0 0 800 160" xmlns="http://www.w3.org/2000/svg">
  <defs>
    <linearGradient id="bg" x1="0%" y1="0%" x2="100%" y2="100%">
      <stop offset="0%" style="stop-color:#78350f"/>
      <stop offset="100%" style="stop-color:#92400e"/>
    </linearGradient>
  </defs>
  <rect width="800" height="160" fill="url(#bg)"/>
  <!-- hex grid -->
  <g stroke="rgba(251,191,36,0.08)" stroke-width="1" fill="none">
    <polygon points="100,30 120,18 140,30 140,54 120,66 100,54"/>
    <polygon points="140,30 160,18 180,30 180,54 160,66 140,54"/>
    <polygon points="180,30 200,18 220,30 220,54 200,66 180,54"/>
    <polygon points="80,66 100,54 120,66 120,90 100,102 80,90"/>
    <polygon points="120,66 140,54 160,66 160,90 140,102 120,90"/>
    <polygon points="160,66 180,54 200,66 200,90 180,102 160,90"/>
  </g>
  <!-- Bitcoin B symbol large -->
  <g transform="translate(320, 15)">
    <circle cx="80" cy="65" r="60" fill="rgba(251,191,36,0.1)" stroke="rgba(251,191,36,0.3)" stroke-width="2"/>
    <text x="57" y="85" font-family="Arial,sans-serif" font-size="70" font-weight="900" fill="rgba(251,191,36,0.7)">₿</text>
  </g>
  <!-- volatile price line -->
  <polyline points="0,100 60,80 100,110 140,65 180,90 220,45 260,70 300,40 340,60 380,30 420,50 460,25 500,42 540,20 580,35 620,18 680,28 740,15 800,20" stroke="#fbbf24" stroke-width="2" fill="none" stroke-linecap="round"/>
  <path d="M0,100 L60,80 L100,110 L140,65 L180,90 L220,45 L260,70 L300,40 L340,60 L380,30 L420,50 L460,25 L500,42 L540,20 L580,35 L620,18 L680,28 L740,15 L800,20 L800,160 L0,160Z" fill="rgba(251,191,36,0.06)"/>
</svg>
